# xmcd CD database file
#
# Track frame offsets:
#	150
#	12258
#	21963
#	32764
#	42321
#	58483
#	70951
#	82138
#	95244
#	105531
#	115530
#	129741
#	139893
#	157767
#	170460
#	183981
#	196999
#	208949
#	219503
#	228085
#	237424
#
# Disc length: 3370 seconds
#
# Revision: 0
# Processed by: cddbd v1.5.2PL0 Copyright (c) Steve Scherf et al.
# Submitted via: CDex 1.70beta2
#
DISCID=2f0d2815
DTITLE=Maestro - Brazilian Trip - CD1
DYEAR=2009
DGENRE=Jazz
TTITLE0=Claudia - Deixa Eu Dizer
TTITLE1=Marcos Valle - Os Grillos (Crickets Sing For Ana Maria)
TTITLE2=Wilson Simonal - Prece Ao Vento
TTITLE3=Joao Donato - Amazonas
TTITLE4=Orlandivo - Onde Anda O Meu Amor
TTITLE5=Quarteto Em Cy - Quando O Carnaval Chegar
TTITLE6=Marcos Valle - Terra De Ninguem
TTITLE7=Doris Monteiro - E Isso Ai
TTITLE8=Claudia - Garra
TTITLE9=Conjunto 3D - Patruira Samba
TTITLE10=Djavan - Nereci
TTITLE11=Joao Donato - Cala Boca Menino
TTITLE12=Luiz Gonzaga Jnr - O Comeco Da Festa
TTITLE13=Milton Nascimento - Tudo Que Voce Podia Ser
TTITLE14=Bebeto - Agua Marinha
TTITLE15=Lo Borges - Todo Prazer
TTITLE16=Toquinho - Berimbau
TTITLE17=Elza Soares - Amor Perfeito
TTITLE18=Wilson Simonal - Mestico
TTITLE19=Milton Banana Trio - Voce
TTITLE20=Elis Regina and Lo Borges - Vento de Maio
EXTD=YEAR: 2009
EXTT0=
EXTT1=
EXTT2=
EXTT3=
EXTT4=
EXTT5=
EXTT6=
EXTT7=
EXTT8=
EXTT9=
EXTT10=
EXTT11=
EXTT12=
EXTT13=
EXTT14=
EXTT15=
EXTT16=
EXTT17=
EXTT18=
EXTT19=
EXTT20=
PLAYORDER=
